<?xml version="1.0" encoding="UTF-8" standalone="no"?>
<svg
   xmlns:dc="http://purl.org/dc/elements/1.1/"
   xmlns:cc="http://creativecommons.org/ns#"
   xmlns:rdf="http://www.w3.org/1999/02/22-rdf-syntax-ns#"
   xmlns:svg="http://www.w3.org/2000/svg"
   xmlns="http://www.w3.org/2000/svg"
   xmlns:sodipodi="http://sodipodi.sourceforge.net/DTD/sodipodi-0.dtd"
   xmlns:inkscape="http://www.inkscape.org/namespaces/inkscape"
   width="19.980469"
   height="10.722656"
   viewBox="0 0 19.980469 10.722656"
   version="1.1"
   id="svg2"
   inkscape:version="0.48.4 r9939"
   sodipodi:docname="seta-esq-carrossel-home.svg">
  <metadata
     id="metadata15">
    <rdf:RDF>
      <cc:Work
         rdf:about="">
        <dc:format>image/svg+xml</dc:format>
        <dc:type
           rdf:resource="http://purl.org/dc/dcmitype/StillImage" />
      </cc:Work>
    </rdf:RDF>
  </metadata>
  <sodipodi:namedview
     pagecolor="#ffffff"
     bordercolor="#666666"
     borderopacity="1"
     objecttolerance="10"
     gridtolerance="10"
     guidetolerance="10"
     inkscape:pageopacity="0"
     inkscape:pageshadow="2"
     inkscape:window-width="1301"
     inkscape:window-height="744"
     id="namedview13"
     showgrid="false"
     fit-margin-top="0"
     fit-margin-left="0"
     fit-margin-right="0"
     fit-margin-bottom="0"
     inkscape:zoom="6.9411765"
     inkscape:cx="9"
     inkscape:cy="5.601563"
     inkscape:window-x="65"
     inkscape:window-y="336"
     inkscape:window-maximized="1"
     inkscape:current-layer="svg2" />
  <!-- Generator: Sketch 41.2 (35397) - http://www.bohemiancoding.com/sketch -->
  <title
     id="title4">seta-esq-carrossel-home</title>
  <desc
     id="desc6">Created with Sketch.</desc>
  <defs
     id="defs8" />
  <g
     id="Symbols"
     transform="matrix(0,-1,1,0,-7.25,23.351562)"
     style="fill:#ffffff;stroke:none">
    <g
       id="seta-esq-carrossel-home"
       style="fill:#ffffff">
      <path
         d="m 22.6875,7.25 c 0.09115,0 0.175781,0.016276 0.253906,0.048828 0.07813,0.032552 0.149739,0.08138 0.214844,0.1464844 0.130209,0.130209 0.195312,0.2897126 0.195312,0.4785156 0,0.1888031 -0.0651,0.3483067 -0.195312,0.4785157 L 14.25,17.308594 l 8.789062,8.789062 c 0.130209,0.130209 0.195313,0.286458 0.195313,0.46875 0,0.182293 -0.0651,0.338541 -0.195313,0.46875 -0.130209,0.130209 -0.289712,0.195313 -0.478515,0.195313 -0.188803,0 -0.348307,-0.0651 -0.478516,-0.195313 l -9.257812,-9.257812 c -0.130209,-0.130209 -0.195313,-0.286458 -0.195313,-0.46875 0,-0.182293 0.0651,-0.338541 0.195313,-0.46875 L 22.21875,7.4453125 C 22.283854,7.380208 22.358723,7.3313804 22.443359,7.2988281 22.527995,7.2662759 22.609375,7.25 22.6875,7.25 z"
         id="Arrow-left---simple-line-icons"
         inkscape:connector-curvature="0"
         style="fill:#ffffff" />
    </g>
  </g>
</svg>
