<?xml version="1.0" encoding="UTF-8"?>
<svg width="211px" height="153px" viewBox="0 0 211 153" version="1.1" xmlns="http://www.w3.org/2000/svg" xmlns:xlink="http://www.w3.org/1999/xlink">
    <!-- Generator: Sketch 41.2 (35397) - http://www.bohemiancoding.com/sketch -->
    <title>thumb-pessoa-semfoto</title>
    <desc>Created with Sketch.</desc>
    <defs></defs>
    <g id="Symbols" stroke="none" stroke-width="1" fill="none" fill-rule="evenodd">
        <g id="thumb-pessoa-semfoto">
            <rect id="Rectangle-7" fill="#9B9B9B" x="0" y="0" width="211" height="153"></rect>
            <path d="M160.000131,141.765613 C160.000131,124.109342 155.859501,96.9999344 132.968849,96.9999344 C130.546971,96.9999344 120.312584,107.859322 105.000066,107.859322 C89.6875473,107.859322 79.4531601,96.9999344 77.0312822,96.9999344 C54.1406299,96.9999344 50,124.109342 50,141.765613 C50,154.421878 58.4375101,162.000012 70.8593999,162.000012 L139.140731,162.000012 C151.562621,162.000012 160.000131,154.421878 160.000131,141.765613 Z M135.000101,71.9999046 C135.000101,55.4373849 121.562585,41.9998689 105.000066,41.9998689 C88.4375458,41.9998689 75.0000298,55.4373849 75.0000298,71.9999046 C75.0000298,88.5624244 88.4375458,101.99994 105.000066,101.99994 C121.562585,101.99994 135.000101,88.5624244 135.000101,71.9999046 Z" id="User---FontAwesome" fill="#EBEBEB"></path>
        </g>
    </g>
</svg>