<?xml version="1.0" encoding="UTF-8" standalone="no"?>
<svg width="26px" height="45px" viewBox="0 0 26 45" version="1.1" xmlns="http://www.w3.org/2000/svg" xmlns:xlink="http://www.w3.org/1999/xlink">
    <!-- Generator: Sketch 41.2 (35397) - http://www.bohemiancoding.com/sketch -->
    <title>map-pin</title>
    <desc>Created with Sketch.</desc>
    <defs></defs>
    <g id="Symbols" stroke="none" stroke-width="1" fill="none" fill-rule="evenodd">
        <g id="map-pin" fill="#262626">
            <path d="M19.2857373,16.4999732 C19.2857373,20.040714 16.397899,22.9285523 12.8571582,22.9285523 C9.31641736,22.9285523 6.42857909,20.040714 6.42857909,16.4999732 C6.42857909,12.9592323 9.31641736,10.0713941 12.8571582,10.0713941 C16.397899,10.0713941 19.2857373,12.9592323 19.2857373,16.4999732 Z M25.7143164,16.4999732 C25.7143164,9.39337988 19.9637515,3.64281499 12.8571582,3.64281499 C5.75056489,3.64281499 0,9.39337988 0,16.4999732 C0,18.031783 0.17578146,19.6138162 0.828684024,20.9949562 L9.99443156,40.4313633 C10.4966643,41.5362753 11.6517996,42.2142895 12.8571582,42.2142895 C14.0625168,42.2142895 15.2176521,41.5362753 15.7449964,40.4313633 L24.8856323,20.9949562 C25.5385349,19.6138162 25.7143164,18.031783 25.7143164,16.4999732 Z" id="map-marker---FontAwesome-Copy-8"></path>
        </g>
    </g>
</svg>