<?xml version="1.0" encoding="UTF-8" standalone="no"?>
<svg
   xmlns:dc="http://purl.org/dc/elements/1.1/"
   xmlns:cc="http://creativecommons.org/ns#"
   xmlns:rdf="http://www.w3.org/1999/02/22-rdf-syntax-ns#"
   xmlns:svg="http://www.w3.org/2000/svg"
   xmlns="http://www.w3.org/2000/svg"
   xmlns:sodipodi="http://sodipodi.sourceforge.net/DTD/sodipodi-0.dtd"
   xmlns:inkscape="http://www.inkscape.org/namespaces/inkscape"
   width="26px"
   height="45px"
   viewBox="0 0 26 45"
   version="1.1"
   id="svg2"
   inkscape:version="0.48.4 r9939"
   sodipodi:docname="map-pin-active.svg">
  <metadata
     id="metadata15">
    <rdf:RDF>
      <cc:Work
         rdf:about="">
        <dc:format>image/svg+xml</dc:format>
        <dc:type
           rdf:resource="http://purl.org/dc/dcmitype/StillImage" />
      </cc:Work>
    </rdf:RDF>
  </metadata>
  <sodipodi:namedview
     pagecolor="#ffffff"
     bordercolor="#666666"
     borderopacity="1"
     objecttolerance="10"
     gridtolerance="10"
     guidetolerance="10"
     inkscape:pageopacity="0"
     inkscape:pageshadow="2"
     inkscape:window-width="1301"
     inkscape:window-height="744"
     id="namedview13"
     showgrid="false"
     inkscape:zoom="5.2444444"
     inkscape:cx="13"
     inkscape:cy="22.5"
     inkscape:window-x="65"
     inkscape:window-y="336"
     inkscape:window-maximized="1"
     inkscape:current-layer="Symbols" />
  <!-- Generator: Sketch 41.2 (35397) - http://www.bohemiancoding.com/sketch -->
  <title
     id="title4">map-pin</title>
  <desc
     id="desc6">Created with Sketch.</desc>
  <defs
     id="defs8" />
  <g
     id="Symbols"
     stroke="none"
     stroke-width="1"
     fill="none"
     fill-rule="evenodd">
    <g
       id="map-pin"
       fill="#522e91"
       style="fill:#9a258f;fill-opacity:1">
      <path
         d="M19.2857373,16.4999732 C19.2857373,20.040714 16.397899,22.9285523 12.8571582,22.9285523 C9.31641736,22.9285523 6.42857909,20.040714 6.42857909,16.4999732 C6.42857909,12.9592323 9.31641736,10.0713941 12.8571582,10.0713941 C16.397899,10.0713941 19.2857373,12.9592323 19.2857373,16.4999732 Z M25.7143164,16.4999732 C25.7143164,9.39337988 19.9637515,3.64281499 12.8571582,3.64281499 C5.75056489,3.64281499 0,9.39337988 0,16.4999732 C0,18.031783 0.17578146,19.6138162 0.828684024,20.9949562 L9.99443156,40.4313633 C10.4966643,41.5362753 11.6517996,42.2142895 12.8571582,42.2142895 C14.0625168,42.2142895 15.2176521,41.5362753 15.7449964,40.4313633 L24.8856323,20.9949562 C25.5385349,19.6138162 25.7143164,18.031783 25.7143164,16.4999732 Z"
         id="map-marker---FontAwesome-Copy-8"
         style="fill:#9a258f;fill-opacity:1" />
    </g>
  </g>
</svg>
